<?xml version="1.0" encoding="UTF-8"?>
<svg width="300" height="300" version="1.1" viewBox="0 0 300 300" xmlns="http://www.w3.org/2000/svg" xmlns:cc="http://creativecommons.org/ns#" xmlns:dc="http://purl.org/dc/elements/1.1/" xmlns:rdf="http://www.w3.org/1999/02/22-rdf-syntax-ns#"
     xmlns:xlink="http://www.w3.org/1999/xlink">
 
 <g>
  <path transform="matrix(2.036 -.79318 .71677 2.253 -170.24 -38.658)" d="m167.29 128.1c-0.0509 6.5779-26.337 11.559-30.244 16.851-3.9076 5.2917-0.9339 31.879-7.2056 33.864-6.2717 1.9843-19.132-21.475-25.372-23.557-6.2403-2.0811-30.608 8.9631-34.433 3.6115-3.8252-5.3516 14.512-24.832 14.563-31.41 0.05093-6.5779-17.983-26.34-14.075-31.632 3.9076-5.2917 28.101 6.1285 34.373 4.1442 6.2717-1.9843 19.494-25.242 25.734-23.161 6.2403 2.0811 2.8552 28.62 6.6804 33.971 3.8252 5.3516 30.031 10.739 29.98 17.317z" fill="#eee" stroke-opacity="1"/>
  <path d="m119.4 120.19c5.1297-3.2949 11.512-2.2574 15.233 5.6919 5.8674 12.532-4.2492 29.981-7.4317 43.975-11.784-4.3796-29.781-3.7674-35.648-16.3-3.6117-7.7144-1.2476-14.679 4.091-18.108 6.8481-4.3988 14.744 2.4984 18.156 5.785-0.53311-5.1296-1.2558-16.641 5.5988-21.044z" fill="#f00" fill-rule="evenodd">
       <animateTransform
                       id="e1"
                       attributeName="transform"
                       type="rotate"
                       from="0 139.6 130.7"
                       to="-18 139.6 130.7"
                       begin="0s"
                       dur="0.5s"
                           repeatCount="indefinite"/>
     </path>
  <path d="m211.49 131.65c5.3613 2.6898 8.7149 9.3108 5.9286 17.853-4.3927 13.468-22.037 15.143-33.078 21.091-4.6014-13.796-16.342-30.211-11.949-43.678 2.7039-8.29 8.691-10.522 14.271-7.7224 7.1574 3.5909 7.682 15.361 7.7114 20.642 2.9758-3.7676 9.9527-11.78 17.117-8.1858z" fill="#f00" fill-rule="evenodd">
       <animateTransform
                       id="e2"
                       attributeName="transform"
                       type="rotate"
                       from="0 139.6 130.7"
                       to="14 139.6 130.7"
                       begin="0s"
                       dur="0.5s"
                           repeatCount="indefinite"/>
     </path>
 </g>
 <g transform="matrix(1.2289 0 0 1.0314 -28.004 36.208)" fill="#000" fill-opacity=".96386" stroke="#000106" stroke-opacity=".8996">
  <path d="m168.21 154.27a32.891 41.936 2.0791 0 1-30.863 6.1265 32.891 41.936 2.0791 0 1-8.3311-5.622 22.514 27.067 0 0 0 12.615 12.205 22.514 27.067 0 0 0 26.579-12.71z" fill="#140a2a" fill-opacity=".96386" stroke="#000106" stroke-opacity=".8996" stroke-width=".97475"/>
 </g>
    
</svg>
